<mxfile host="app.diagrams.net" modified="2024-03-24T18:53:56.232Z" agent="Mozilla/5.0 (Windows NT 10.0; Win64; x64) AppleWebKit/537.36 (KHTML, like Gecko) Chrome/122.0.0.0 Safari/537.36 Edg/122.0.0.0" etag="1hxdxtHOq6v7lmlMCskL" version="24.1.0" type="device">
  <diagram name="Page-1" id="WM1Q3xILvZXtPdTbCOPx">
    <mxGraphModel dx="1002" dy="582" grid="1" gridSize="10" guides="1" tooltips="1" connect="1" arrows="1" fold="1" page="1" pageScale="1" pageWidth="850" pageHeight="1100" math="0" shadow="0">
      <root>
        <mxCell id="0" />
        <mxCell id="1" parent="0" />
        <mxCell id="4duX6d5NC3-lf59HhB32-1" value="IDeviceFactory" style="rounded=1;whiteSpace=wrap;html=1;" vertex="1" parent="1">
          <mxGeometry x="340" y="130" width="120" height="60" as="geometry" />
        </mxCell>
        <mxCell id="4duX6d5NC3-lf59HhB32-4" style="edgeStyle=orthogonalEdgeStyle;rounded=0;orthogonalLoop=1;jettySize=auto;html=1;exitX=0.5;exitY=0;exitDx=0;exitDy=0;" edge="1" parent="1" source="4duX6d5NC3-lf59HhB32-2" target="4duX6d5NC3-lf59HhB32-1">
          <mxGeometry relative="1" as="geometry" />
        </mxCell>
        <mxCell id="4duX6d5NC3-lf59HhB32-2" value="IphoneFactory" style="rounded=0;whiteSpace=wrap;html=1;" vertex="1" parent="1">
          <mxGeometry x="180" y="270" width="120" height="60" as="geometry" />
        </mxCell>
        <mxCell id="4duX6d5NC3-lf59HhB32-7" style="edgeStyle=orthogonalEdgeStyle;rounded=0;orthogonalLoop=1;jettySize=auto;html=1;exitX=0.5;exitY=0;exitDx=0;exitDy=0;entryX=0.5;entryY=1;entryDx=0;entryDy=0;" edge="1" parent="1" source="4duX6d5NC3-lf59HhB32-5" target="4duX6d5NC3-lf59HhB32-1">
          <mxGeometry relative="1" as="geometry" />
        </mxCell>
        <mxCell id="4duX6d5NC3-lf59HhB32-5" value="SumsungFactory" style="rounded=0;whiteSpace=wrap;html=1;" vertex="1" parent="1">
          <mxGeometry x="340" y="300" width="120" height="60" as="geometry" />
        </mxCell>
        <mxCell id="4duX6d5NC3-lf59HhB32-10" style="edgeStyle=orthogonalEdgeStyle;rounded=0;orthogonalLoop=1;jettySize=auto;html=1;entryX=0.5;entryY=1;entryDx=0;entryDy=0;exitX=0.5;exitY=0;exitDx=0;exitDy=0;" edge="1" parent="1" source="4duX6d5NC3-lf59HhB32-6" target="4duX6d5NC3-lf59HhB32-1">
          <mxGeometry relative="1" as="geometry" />
        </mxCell>
        <mxCell id="4duX6d5NC3-lf59HhB32-6" value="XiaomiFactory" style="rounded=0;whiteSpace=wrap;html=1;" vertex="1" parent="1">
          <mxGeometry x="510" y="270" width="120" height="60" as="geometry" />
        </mxCell>
        <mxCell id="4duX6d5NC3-lf59HhB32-12" value="IDevice" style="rounded=1;whiteSpace=wrap;html=1;" vertex="1" parent="1">
          <mxGeometry x="350" y="410" width="120" height="60" as="geometry" />
        </mxCell>
        <mxCell id="4duX6d5NC3-lf59HhB32-13" style="edgeStyle=orthogonalEdgeStyle;rounded=0;orthogonalLoop=1;jettySize=auto;html=1;exitX=0.5;exitY=0;exitDx=0;exitDy=0;" edge="1" parent="1" source="4duX6d5NC3-lf59HhB32-14" target="4duX6d5NC3-lf59HhB32-12">
          <mxGeometry relative="1" as="geometry" />
        </mxCell>
        <mxCell id="4duX6d5NC3-lf59HhB32-14" value="EBook" style="rounded=0;whiteSpace=wrap;html=1;" vertex="1" parent="1">
          <mxGeometry x="70" y="560" width="120" height="60" as="geometry" />
        </mxCell>
        <mxCell id="4duX6d5NC3-lf59HhB32-15" style="edgeStyle=orthogonalEdgeStyle;rounded=0;orthogonalLoop=1;jettySize=auto;html=1;exitX=0.5;exitY=0;exitDx=0;exitDy=0;entryX=0.5;entryY=1;entryDx=0;entryDy=0;" edge="1" parent="1" source="4duX6d5NC3-lf59HhB32-16" target="4duX6d5NC3-lf59HhB32-12">
          <mxGeometry relative="1" as="geometry" />
        </mxCell>
        <mxCell id="4duX6d5NC3-lf59HhB32-16" value="Laptop" style="rounded=0;whiteSpace=wrap;html=1;" vertex="1" parent="1">
          <mxGeometry x="240" y="560" width="120" height="60" as="geometry" />
        </mxCell>
        <mxCell id="4duX6d5NC3-lf59HhB32-17" style="edgeStyle=orthogonalEdgeStyle;rounded=0;orthogonalLoop=1;jettySize=auto;html=1;entryX=0.5;entryY=1;entryDx=0;entryDy=0;exitX=0.5;exitY=0;exitDx=0;exitDy=0;" edge="1" parent="1" source="4duX6d5NC3-lf59HhB32-18" target="4duX6d5NC3-lf59HhB32-12">
          <mxGeometry relative="1" as="geometry" />
        </mxCell>
        <mxCell id="4duX6d5NC3-lf59HhB32-18" value="Netbook" style="rounded=0;whiteSpace=wrap;html=1;" vertex="1" parent="1">
          <mxGeometry x="460" y="560" width="120" height="60" as="geometry" />
        </mxCell>
        <mxCell id="4duX6d5NC3-lf59HhB32-20" style="edgeStyle=orthogonalEdgeStyle;rounded=0;orthogonalLoop=1;jettySize=auto;html=1;entryX=0.5;entryY=1;entryDx=0;entryDy=0;exitX=0.5;exitY=0;exitDx=0;exitDy=0;" edge="1" parent="1" source="4duX6d5NC3-lf59HhB32-19" target="4duX6d5NC3-lf59HhB32-12">
          <mxGeometry relative="1" as="geometry" />
        </mxCell>
        <mxCell id="4duX6d5NC3-lf59HhB32-19" value="Smartphone" style="rounded=0;whiteSpace=wrap;html=1;" vertex="1" parent="1">
          <mxGeometry x="650" y="560" width="120" height="60" as="geometry" />
        </mxCell>
      </root>
    </mxGraphModel>
  </diagram>
</mxfile>
